<?xml version="1.0" standalone="no"?>
<!DOCTYPE svg PUBLIC "-//W3C//DTD SVG 20010904//EN"
 "http://www.w3.org/TR/2001/REC-SVG-20010904/DTD/svg10.dtd">
<svg version="1.0" xmlns="http://www.w3.org/2000/svg"
 width="768.000000pt" height="768.000000pt" viewBox="0 0 768.000000 768.000000"
 preserveAspectRatio="xMidYMid meet">
<metadata>
Created by potrace 1.14, written by Peter Selinger 2001-2017
</metadata>
<g transform="translate(0.000000,768.000000) scale(0.100000,-0.100000)"
fill="#000000" stroke="none">
<path d="M3538 7317 c-46 -11 -107 -63 -147 -125 -17 -26 -67 -134 -111 -240
-121 -292 -186 -422 -293 -596 -18 -29 -136 -196 -164 -231 -13 -16 -27 -34
-31 -40 -61 -81 -138 -181 -142 -185 -3 -3 -16 -22 -30 -42 -14 -21 -30 -38
-36 -38 -6 0 -47 -18 -91 -39 -257 -126 -473 -326 -603 -558 l-45 -81 -107
-60 c-171 -96 -227 -116 -334 -117 -84 0 -94 2 -139 30 -58 36 -113 113 -151
210 -66 171 -102 227 -161 251 -47 20 -91 17 -150 -11 -135 -62 -164 -163 -91
-312 17 -35 89 -139 160 -231 241 -313 371 -531 487 -817 62 -154 60 -148 106
-250 33 -73 36 -85 30 -138 -9 -73 -9 -257 -1 -317 29 -207 100 -416 188 -553
l31 -48 -6 -167 c-3 -99 -11 -187 -20 -217 -45 -160 -132 -231 -284 -233 -43
-1 -109 4 -146 12 -90 17 -203 14 -244 -7 -62 -33 -93 -106 -86 -202 5 -63 27
-110 67 -140 57 -43 182 -60 311 -42 22 4 61 9 87 12 26 2 62 7 80 10 338 48
640 51 908 10 19 -3 53 -8 75 -10 22 -3 56 -7 75 -10 35 -5 70 -9 168 -20 43
-5 67 -17 127 -60 210 -150 490 -243 756 -249 l126 -3 124 -74 c328 -194 377
-359 180 -604 -106 -132 -137 -195 -126 -262 11 -70 82 -135 174 -159 59 -14
109 -2 159 42 59 51 94 112 182 322 121 292 186 422 293 596 18 29 136 196
164 231 13 17 27 35 31 40 72 96 138 181 143 185 3 3 14 20 25 39 15 26 39 43
109 76 78 36 220 118 235 135 3 3 35 29 72 58 124 98 293 302 336 408 10 22
35 44 91 77 189 113 283 147 394 144 144 -4 208 -71 303 -316 64 -165 145
-220 262 -176 147 56 188 174 110 323 -19 37 -97 148 -173 247 -76 99 -163
218 -193 265 -30 47 -63 97 -73 111 -47 70 -147 276 -228 472 -50 120 -98 231
-107 248 -12 23 -14 45 -9 92 8 72 9 254 1 312 -28 213 -88 391 -181 546 l-36
59 2 147 c3 167 17 254 56 332 64 126 190 171 380 135 36 -7 102 -12 147 -12
101 0 146 21 177 84 22 46 31 167 14 194 -5 8 -10 19 -10 23 0 20 -71 77 -112
91 -45 16 -217 17 -303 2 -19 -3 -53 -8 -75 -11 -22 -2 -60 -7 -85 -10 -191
-25 -262 -30 -440 -30 -193 1 -305 8 -455 31 -16 2 -55 7 -85 10 -30 3 -61 7
-68 10 -7 2 -50 7 -95 10 -79 6 -85 8 -170 65 -231 154 -484 237 -748 243
l-126 3 -124 74 c-328 194 -377 359 -180 604 106 132 137 195 126 262 -15 98
-155 185 -257 160z m-262 -1362 c-11 -8 -25 -15 -30 -16 -74 -4 -94 -3 -87 4
10 10 61 22 106 25 28 2 29 1 11 -13z m2085 -512 c14 -16 28 -36 32 -46 5 -14
3 -16 -11 -8 -20 11 -41 34 -66 74 -17 27 -17 28 1 19 10 -6 30 -23 44 -39z
m-1752 7 c268 -88 469 -276 535 -500 20 -66 25 -96 30 -173 6 -97 2 -104 -57
-110 -62 -6 -145 -42 -207 -89 l-44 -34 -32 66 c-150 313 -533 548 -902 552
l-53 1 33 20 c18 11 45 28 60 38 15 11 30 19 33 19 3 0 56 29 118 64 62 35
159 89 217 120 97 52 109 56 155 52 28 -3 79 -15 114 -26z m1326 -370 c135
-83 140 -88 157 -135 97 -271 51 -595 -112 -788 -65 -77 -211 -188 -246 -187
-5 1 -21 18 -36 40 -33 47 -117 111 -180 136 -27 10 -48 23 -48 28 0 4 13 25
30 46 40 51 106 191 125 267 9 35 19 73 22 85 3 13 7 93 9 178 3 219 -27 360
-112 521 -13 26 -24 49 -24 52 0 7 213 -118 415 -243z m-1890 -422 c38 -9 101
-33 140 -52 104 -53 100 -48 82 -87 -28 -61 -36 -110 -34 -208 1 -76 -2 -95
-12 -93 -52 11 -200 5 -283 -12 -16 -3 -40 -8 -54 -11 -142 -30 -360 -158
-489 -289 -91 -92 -104 -108 -146 -177 -17 -27 -32 -49 -33 -49 -4 0 3 449 8
559 l5 103 48 52 c55 59 157 140 223 179 61 35 205 87 260 94 25 3 47 7 50 10
11 10 170 -2 235 -19z m-1322 -274 c-4 -30 -38 -104 -48 -104 -1 0 1 17 5 38
18 87 53 142 43 66z m3741 -606 c-2 -123 -5 -272 -8 -333 l-6 -109 -62 -64
c-178 -181 -398 -277 -615 -268 -127 6 -189 23 -306 84 -50 26 -67 39 -63 51
3 9 15 43 27 76 18 50 20 75 17 155 l-5 96 52 -6 c231 -25 492 64 715 245 77
61 176 172 222 246 16 27 31 49 32 49 2 0 2 -100 0 -222z m-2504 -76 c0 -16
71 -92 114 -120 23 -16 64 -37 89 -47 26 -10 47 -20 47 -23 0 -2 -15 -25 -34
-51 -65 -89 -130 -250 -142 -356 -4 -27 -8 -53 -11 -57 -6 -11 -4 -191 2 -263
12 -123 71 -312 126 -402 l22 -35 -34 17 c-28 15 -317 188 -492 296 -43 26
-53 44 -82 154 -33 125 -36 260 -10 407 19 106 99 256 180 340 77 79 225 171
225 140z m3043 -324 c-11 -51 -35 -118 -42 -118 -15 0 -1 72 19 106 25 40 30
42 23 12z m-2147 -328 c156 -303 533 -528 892 -532 l53 -1 -33 -20 c-18 -11
-45 -28 -60 -38 -15 -11 -30 -19 -33 -19 -3 0 -52 -26 -108 -59 -56 -32 -155
-86 -219 -120 l-117 -61 -78 16 c-160 32 -316 113 -428 221 -160 154 -230 331
-216 551 1 18 7 22 34 22 19 0 58 8 88 18 56 18 169 87 169 103 0 21 12 4 56
-81z m-1529 -782 c11 -13 26 -34 33 -48 13 -24 12 -24 -6 -10 -26 21 -63 63
-64 73 0 14 17 7 37 -15z m2187 -533 c-36 -16 -133 -31 -122 -20 20 21 58 33
103 33 l50 0 -31 -13z"/>
</g>
</svg>
